<?xml version="1.0" encoding="UTF-8"?>
<svg id="Layer_2" data-name="Layer 2" xmlns="http://www.w3.org/2000/svg" viewBox="0 0 479.22 55.44">
  <defs>
    <style>
      .cls-1 {
        fill: #fff;
      }

      .cls-2 {
        fill: #c1272d;
      }
    </style>
  </defs>
  <g id="Layer_1-2" data-name="Layer 1">
    <path class="cls-1" d="M3.31,16.45c2.21-3.91,5.22-6.97,9.04-9.18,3.82-2.21,8.05-3.31,12.71-3.31,5.47,0,10.25,1.32,14.33,3.96,4.08,2.64,7.06,6.38,8.93,11.23h-7.85c-1.39-3.02-3.4-5.35-6.01-6.98-2.62-1.63-5.75-2.45-9.4-2.45s-6.65.82-9.43,2.45c-2.78,1.63-4.97,3.95-6.55,6.95s-2.38,6.52-2.38,10.55.79,7.48,2.38,10.48c1.58,3,3.77,5.32,6.55,6.95,2.78,1.63,5.93,2.45,9.43,2.45s6.78-.8,9.4-2.41c2.62-1.61,4.62-3.92,6.01-6.95h7.85c-1.87,4.8-4.85,8.51-8.93,11.12-4.08,2.62-8.86,3.92-14.33,3.92-4.66,0-8.89-1.09-12.71-3.28-3.82-2.18-6.83-5.22-9.04-9.11-2.21-3.89-3.31-8.28-3.31-13.18s1.1-9.3,3.31-13.21Z"/>
    <path class="cls-1" d="M58.03,24.3c1.63-3.05,3.88-5.41,6.73-7.09,2.86-1.68,6.04-2.52,9.54-2.52s6.46.75,9,2.23c2.54,1.49,4.44,3.36,5.69,5.62v-7.2h6.62v39.46h-6.62v-7.34c-1.3,2.3-3.23,4.21-5.8,5.72-2.57,1.51-5.56,2.27-8.96,2.27s-6.67-.86-9.5-2.59c-2.83-1.73-5.06-4.15-6.7-7.27-1.63-3.12-2.45-6.67-2.45-10.66s.82-7.57,2.45-10.62ZM87.19,27.22c-1.2-2.21-2.82-3.9-4.86-5.08-2.04-1.18-4.28-1.76-6.73-1.76s-4.68.58-6.7,1.73c-2.02,1.15-3.62,2.83-4.82,5.04-1.2,2.21-1.8,4.8-1.8,7.78s.6,5.65,1.8,7.88c1.2,2.23,2.81,3.94,4.82,5.11,2.02,1.18,4.25,1.76,6.7,1.76s4.69-.59,6.73-1.76c2.04-1.18,3.66-2.88,4.86-5.11,1.2-2.23,1.8-4.83,1.8-7.81s-.6-5.57-1.8-7.78Z"/>
    <path class="cls-1" d="M162.36,16.52c2.4,1.27,4.29,3.18,5.69,5.72,1.39,2.54,2.09,5.64,2.09,9.29v23.26h-6.48v-22.32c0-3.94-.97-6.95-2.92-9.04s-4.57-3.13-7.88-3.13-6.12,1.09-8.14,3.28c-2.02,2.18-3.02,5.34-3.02,9.47v21.74h-6.48v-22.32c0-3.94-.97-6.95-2.92-9.04-1.94-2.09-4.57-3.13-7.88-3.13s-6.12,1.09-8.14,3.28c-2.02,2.18-3.02,5.34-3.02,9.47v21.74h-6.55V15.34h6.55v5.69c1.3-2.06,3.04-3.65,5.22-4.75,2.18-1.1,4.6-1.66,7.24-1.66,3.31,0,6.24.74,8.78,2.23,2.54,1.49,4.44,3.67,5.69,6.55,1.1-2.78,2.93-4.94,5.47-6.48,2.54-1.54,5.38-2.3,8.5-2.3s5.81.64,8.21,1.91Z"/>
    <path class="cls-2" d="M181.08,7.63c-.86-.86-1.3-1.92-1.3-3.17s.43-2.3,1.3-3.17c.86-.86,1.92-1.3,3.17-1.3s2.22.43,3.06,1.3c.84.86,1.26,1.92,1.26,3.17s-.42,2.3-1.26,3.17c-.84.86-1.86,1.3-3.06,1.3s-2.3-.43-3.17-1.3Z"/>
    <rect class="cls-1" x="180.86" y="15.34" width="6.55" height="39.46"/>
    <path class="cls-1" d="M205.13,1.51v53.28h-6.55V1.51h6.55Z"/>
    <path class="cls-1" d="M223.45,52.92c-3-1.68-5.35-4.07-7.06-7.16-1.7-3.1-2.56-6.68-2.56-10.76s.88-7.6,2.63-10.69c1.75-3.1,4.14-5.47,7.16-7.13,3.02-1.66,6.41-2.48,10.15-2.48s7.13.83,10.15,2.48,5.41,4.02,7.16,7.09c1.75,3.07,2.63,6.65,2.63,10.73s-.9,7.67-2.7,10.76c-1.8,3.1-4.24,5.48-7.31,7.16-3.07,1.68-6.48,2.52-10.22,2.52s-7.04-.84-10.04-2.52ZM240.12,48.02c2.06-1.1,3.73-2.76,5-4.97,1.27-2.21,1.91-4.9,1.91-8.06s-.62-5.86-1.87-8.06c-1.25-2.21-2.88-3.85-4.9-4.93s-4.2-1.62-6.55-1.62-4.6.54-6.59,1.62c-1.99,1.08-3.59,2.72-4.79,4.93-1.2,2.21-1.8,4.9-1.8,8.06s.59,5.93,1.76,8.14c1.18,2.21,2.75,3.85,4.72,4.93,1.97,1.08,4.13,1.62,6.48,1.62s4.56-.55,6.62-1.66Z"/>
    <path class="cls-1" d="M311.72,31.18c1.51,1.2,2.71,2.69,3.6,4.46.89,1.78,1.33,3.67,1.33,5.69,0,2.54-.65,4.84-1.94,6.88s-3.18,3.65-5.65,4.82c-2.47,1.18-5.39,1.76-8.75,1.76h-18.72V4.61h18c3.41,0,6.31.57,8.71,1.69,2.4,1.13,4.2,2.65,5.4,4.57,1.2,1.92,1.8,4.08,1.8,6.48,0,2.98-.8,5.44-2.41,7.38-1.61,1.94-3.73,3.35-6.37,4.21,1.82.29,3.49,1.03,5,2.23ZM288.14,26.28h11.02c3.07,0,5.45-.72,7.13-2.16,1.68-1.44,2.52-3.43,2.52-5.98s-.84-4.54-2.52-5.98c-1.68-1.44-4.1-2.16-7.27-2.16h-10.87v16.27ZM307.36,47.09c1.82-1.54,2.74-3.67,2.74-6.41s-.96-4.98-2.88-6.59c-1.92-1.61-4.49-2.41-7.7-2.41h-11.38v17.71h11.59c3.26,0,5.81-.77,7.63-2.3Z"/>
    <path class="cls-1" d="M361.51,37.51h-31.54c.24,3.89,1.57,6.92,4,9.11,2.42,2.18,5.36,3.28,8.82,3.28,2.83,0,5.2-.66,7.09-1.98,1.9-1.32,3.23-3.08,4-5.29h7.06c-1.06,3.79-3.17,6.88-6.34,9.25s-7.1,3.56-11.81,3.56c-3.74,0-7.09-.84-10.04-2.52-2.95-1.68-5.27-4.07-6.95-7.16-1.68-3.1-2.52-6.68-2.52-10.76s.82-7.66,2.45-10.73c1.63-3.07,3.92-5.44,6.88-7.09s6.35-2.48,10.19-2.48,7.06.82,9.94,2.45c2.88,1.63,5.1,3.88,6.66,6.73,1.56,2.86,2.34,6.08,2.34,9.68,0,1.25-.07,2.57-.22,3.96ZM353.3,25.74c-1.1-1.8-2.6-3.17-4.5-4.1-1.9-.94-4-1.4-6.3-1.4-3.31,0-6.13,1.06-8.46,3.17-2.33,2.11-3.66,5.04-4,8.78h24.91c0-2.5-.55-4.64-1.66-6.44Z"/>
    <path class="cls-1" d="M381.85,16.49c2.14-1.25,4.74-1.87,7.81-1.87v6.77h-1.73c-7.34,0-11.02,3.98-11.02,11.95v21.46h-6.55V15.34h6.55v6.41c1.15-2.26,2.8-4.01,4.93-5.26Z"/>
    <path class="cls-1" d="M408.7,16.49c2.13-1.25,4.74-1.87,7.81-1.87v6.77h-1.73c-7.34,0-11.02,3.98-11.02,11.95v21.46h-6.55V15.34h6.55v6.41c1.15-2.26,2.8-4.01,4.93-5.26Z"/>
    <path class="cls-2" d="M424.29,7.63c-.86-.86-1.3-1.92-1.3-3.17s.43-2.3,1.3-3.17c.86-.86,1.92-1.3,3.17-1.3s2.22.43,3.06,1.3c.84.86,1.26,1.92,1.26,3.17s-.42,2.3-1.26,3.17c-.84.86-1.86,1.3-3.06,1.3s-2.3-.43-3.17-1.3Z"/>
    <rect class="cls-1" x="424.07" y="15.34" width="6.55" height="39.46"/>
    <path class="cls-1" d="M448.95,52.92c-3-1.68-5.35-4.07-7.06-7.16-1.71-3.1-2.56-6.68-2.56-10.76s.88-7.6,2.63-10.69,4.14-5.47,7.16-7.13c3.02-1.66,6.41-2.48,10.15-2.48s7.13.83,10.15,2.48c3.02,1.66,5.41,4.02,7.16,7.09,1.75,3.07,2.63,6.65,2.63,10.73s-.9,7.67-2.7,10.76-4.24,5.48-7.31,7.16c-3.07,1.68-6.48,2.52-10.22,2.52s-7.04-.84-10.04-2.52ZM465.62,48.02c2.06-1.1,3.73-2.76,5-4.97,1.27-2.21,1.91-4.9,1.91-8.06s-.62-5.86-1.87-8.06c-1.25-2.21-2.88-3.85-4.9-4.93-2.02-1.08-4.2-1.62-6.55-1.62s-4.6.54-6.59,1.62c-1.99,1.08-3.59,2.72-4.79,4.93-1.2,2.21-1.8,4.9-1.8,8.06s.59,5.93,1.76,8.14c1.18,2.21,2.75,3.85,4.72,4.93,1.97,1.08,4.13,1.62,6.48,1.62s4.56-.55,6.62-1.66Z"/>
  </g>
</svg>